<?xml version="1.0" encoding="UTF-8" standalone="no"?>
<!-- Created with Inkscape (http://www.inkscape.org/) -->

<svg
   xmlns:dc="http://purl.org/dc/elements/1.1/"
   xmlns:cc="http://creativecommons.org/ns#"
   xmlns:rdf="http://www.w3.org/1999/02/22-rdf-syntax-ns#"
   xmlns:svg="http://www.w3.org/2000/svg"
   xmlns="http://www.w3.org/2000/svg"
   xmlns:sodipodi="http://sodipodi.sourceforge.net/DTD/sodipodi-0.dtd"
   xmlns:inkscape="http://www.inkscape.org/namespaces/inkscape"
   version="1.1"
   id="svg2"
   width="233.77612"
   height="238.078"
   viewBox="0 0 233.77613 238.078"
   sodipodi:docname="plos_figure_crop.svg"
   inkscape:version="0.92.0 r15299"
   inkscape:export-filename="C:\Users\RegularP\Documents\PROJECTS\survey_design\SimSurvey\analysis\presentation\graphics\plos_figure_crop.png"
   inkscape:export-xdpi="150"
   inkscape:export-ydpi="150">
  <metadata
     id="metadata8">
    <rdf:RDF>
      <cc:Work
         rdf:about="">
        <dc:format>image/svg+xml</dc:format>
        <dc:type
           rdf:resource="http://purl.org/dc/dcmitype/StillImage" />
        <dc:title />
      </cc:Work>
    </rdf:RDF>
  </metadata>
  <defs
     id="defs6">
    <clipPath
       clipPathUnits="userSpaceOnUse"
       id="clipPath4489">
      <rect
         style="fill:#ffffff;fill-opacity:1"
         id="rect4491"
         width="117.64584"
         height="100.6701"
         x="202.12976"
         y="1.5673755" />
    </clipPath>
  </defs>
  <sodipodi:namedview
     pagecolor="#ffffff"
     bordercolor="#666666"
     borderopacity="1"
     objecttolerance="10"
     gridtolerance="10"
     guidetolerance="10"
     inkscape:pageopacity="0"
     inkscape:pageshadow="2"
     inkscape:window-width="1920"
     inkscape:window-height="1058"
     id="namedview4"
     showgrid="false"
     fit-margin-top="0"
     fit-margin-left="0"
     fit-margin-right="0"
     fit-margin-bottom="0"
     inkscape:zoom="2.5330263"
     inkscape:cx="111.57937"
     inkscape:cy="117.9791"
     inkscape:window-x="1912"
     inkscape:window-y="-8"
     inkscape:window-maximized="1"
     inkscape:current-layer="svg2" />
  <path
     style="fill:#000000;stroke-width:0.77483404"
     d="m 106.40799,236.59994 c -6.670569,-2.04379 -8.180089,-2.96119 -6.929719,-4.21156 0.52066,-0.52066 1.910449,-0.23075 4.202569,0.8767 1.88358,0.91005 4.91565,2.29375 6.73799,3.07488 7.62751,3.69347 -3.65485,0.3689 -4.01084,0.25998 z m 7.32415,-6.1475 c 0,-0.91283 1.07108,-1.16226 4.9907,-1.16226 5.59486,0 7.35788,1.09872 2.93597,1.82968 -5.08315,0.84026 -7.92667,0.60083 -7.92667,-0.66742 z m 18.16688,0.3199 c -1.03813,-1.67976 0.93493,-2.04716 6.89873,-1.28455 3.90868,0.49984 5.70847,1.01457 5.03642,1.44047 -1.52622,0.96718 -11.3201,0.83924 -11.93515,-0.15594 z m -29.40445,-11.20298 c -4.146109,-2.94208 -4.805779,-3.79684 -3.535949,-4.58165 0.44274,-0.27364 2.640369,1.2631 4.883629,3.41493 4.7569,4.56306 4.16309,5.07714 -1.34768,1.16672 z m -21.638659,-7.21747 c -4.43687,-2.7831 -6.21761,-4.75704 -4.29145,-4.75704 1.12024,0 9.99391,6.34352 10.02592,7.16721 0.0387,0.9975 -0.99365,0.5636 -5.73447,-2.41017 z m -29.286575,1.10828 c -3.293045,-0.50754 -6.246688,-1.18215 -6.563644,-1.49911 -0.694856,-0.69486 1.216151,-2.00161 2.407894,-1.64655 0.464779,0.13851 3.372974,0.84114 6.462625,1.56144 3.08965,0.72031 5.617547,1.62078 5.617547,2.00103 0,0.80118 -0.03317,0.79944 -7.924422,-0.41681 z m 93.937774,-0.63519 c 0.007,-0.96145 7.48316,-6.15865 10.45348,-7.26671 1.35066,-0.50384 1.41935,-0.41769 0.53478,0.67079 -1.56666,1.92783 -9.0912,7.56446 -10.09804,7.56446 -0.49336,0 -0.89395,-0.43584 -0.89022,-0.96854 z m -58.700449,-4.95097 c -2.6635,-1.93707 -4.84272,-3.83834 -4.84272,-4.22505 0,-1.73432 2.60497,-0.37066 6.74368,3.53021 5.46156,5.14773 4.63648,5.44931 -1.90096,0.69484 z m 32.769399,1.32332 c -1.17693,-1.9043 0.58432,-2.5678 5.48372,-2.06583 7.86265,0.80553 9.47382,1.90556 2.87647,1.96389 -3.05481,0.0271 -6.07044,0.24724 -6.70144,0.48935 -0.63098,0.24214 -1.37742,0.0678 -1.65875,-0.38741 z m -22.303839,-3.76749 c -5.00272,-3.49123 -6.53667,-5.58333 -4.09379,-5.58333 0.62788,0 3.33012,2.07989 6.00496,4.622 2.674829,2.54211 4.514649,4.61879 4.088489,4.61482 -0.42616,-0.005 -3.126,-1.64805 -5.999659,-3.65349 z M 51.2795,204.49847 c -1.661463,-1.27686 -4.149697,-3.1074 -5.529434,-4.06788 -2.219997,-1.54541 -3.503049,-4.47666 -1.946698,-4.44731 0.933481,0.017 9.442346,7.74701 10.307181,9.36297 1.058182,1.97721 0.708707,1.87256 -2.831049,-0.84778 z m 64.00231,-1.10656 c -1.49156,-0.56958 -3.84512,-1.46008 -5.23013,-1.97888 -2.31238,-0.86619 -3.16409,-2.21203 -2.08363,-3.29249 0.23899,-0.23899 2.70507,0.7489 5.48014,2.19537 2.77506,1.44647 5.52267,2.62993 6.10578,2.62993 0.58312,0 1.27572,0.34868 1.53909,0.77484 0.67394,1.09043 -2.57625,0.90655 -5.81125,-0.32877 z m 1.93708,-3.28605 c -3.17234,-1.67619 -5.03642,-3.39392 -5.03642,-4.64109 0,-1.50485 2.06338,-1.28082 3.24912,0.35274 1.66263,2.29058 4.70097,4.02895 7.04186,4.02895 1.26792,0 1.99522,0.32783 1.71895,0.77483 -0.71084,1.1502 -4.32699,0.88293 -6.97351,-0.51543 z m 31.38078,-0.12422 c 0,-1.07389 3.30307,-3.74213 6.81471,-5.50502 1.83038,-0.91886 4.61978,-2.81331 6.19868,-4.20985 2.82531,-2.49901 7.6101,-4.92254 8.31898,-4.21364 0.19928,0.19928 -0.94518,1.20499 -2.54306,2.23508 -1.59785,1.03012 -3.24938,2.65746 -3.67007,3.61632 -0.42066,0.95886 -1.16249,1.74338 -1.64848,1.74338 -0.48602,0 -1.31773,0.52301 -1.84825,1.16225 -0.53052,0.63924 -1.46923,1.16225 -2.08605,1.16225 -0.61681,0 -2.64184,1.04603 -4.50004,2.3245 -3.38539,2.3292 -5.03642,2.88149 -5.03642,1.68473 z M 28.694128,195.80703 c -2.663492,-1.78573 -4.842713,-3.69942 -4.842713,-4.25263 0,-2.00873 2.07687,-0.91789 6.198673,3.25576 2.314744,2.34387 4.046207,4.25754 3.84768,4.25263 -0.198551,-0.005 -2.540148,-1.47001 -5.20364,-3.25576 z M 189.66588,197.218 c 0,-1.23721 4.39192,-6.84573 6.34826,-8.10679 0.72149,-0.46507 -0.12712,1.41133 -1.88566,4.16981 -3.13439,4.91652 -4.4626,6.08829 -4.4626,3.93701 z m -96.660549,-4.13785 c -2.334,-0.21018 -3.29305,-0.64721 -3.29305,-1.50052 0,-0.92839 0.57636,-1.10724 2.51821,-0.78149 1.38502,0.23245 4.04575,0.6582 5.91276,0.94634 2.365039,0.36497 3.070009,0.72938 2.324499,1.20157 -0.588529,0.37275 -1.767389,0.62215 -2.619709,0.5542 -0.85232,-0.068 -3.03154,-0.25698 -4.84271,-0.4201 z m 83.488369,0.21961 c 0,-1.1629 6.29593,-12.82437 6.92377,-12.82437 1.29828,0 -4.18188,12.75776 -5.59723,13.03033 -0.72958,0.14044 -1.32654,0.0479 -1.32654,-0.20605 z M 49.865452,189.18925 c -5.798398,-3.47196 -7.369956,-5.22711 -4.680386,-5.22711 1.302303,0 11.915229,7.39267 11.957797,8.32947 0.04915,1.08256 -1.12259,0.58304 -7.277411,-3.10236 z m 90.985878,2.6199 c 0,-1.54792 4.42573,-9.05141 6.08187,-10.31139 0.7035,-0.53519 1.78156,-0.98419 2.39571,-0.99775 0.79074,-0.0169 0.68563,0.29052 -0.36013,1.05518 -0.81222,0.59394 -2.53506,3.26833 -3.82855,5.94315 -2.28358,4.72218 -4.2889,6.73776 -4.2889,4.31081 z m -60.487519,-1.74267 c -0.59795,-1.11726 -3.07597,-3.38196 -5.50672,-5.03265 -5.00414,-3.39825 -5.8091,-4.34977 -4.65564,-5.50323 1.49195,-1.49194 10.22622,6.16887 11.63247,10.20282 1.00939,2.89556 0.0218,3.11946 -1.47011,0.33306 z m 36.918999,0.58379 c -2.57581,-0.55771 -3.67949,-2.42654 -1.43303,-2.42654 2.39901,0 10.57276,1.64018 11.82937,2.37373 1.34724,0.78648 -6.81631,0.82793 -10.39634,0.0528 z M 4.1484748,185.75247 c -0.888638,-5.40934 -0.878638,-6.26533 0.077,-6.59851 1.17506,-0.40962 2.318957,8.09084 1.234674,9.1751 -0.500955,0.50095 -0.951618,-0.38427 -1.31177,-2.57659 z m 29.0367612,-3.33971 c -0.609674,-2.13079 -2.261838,-5.48485 -3.671503,-7.45346 -1.409641,-1.96861 -2.562982,-3.9735 -2.562982,-4.4553 0,-1.04336 2.047112,-1.17685 2.666955,-0.17385 0.238746,0.38616 1.130919,0.51981 1.982824,0.29705 1.571582,-0.411 1.667952,-0.16441 1.879966,4.81211 0.03632,0.85231 0.733622,2.53828 1.549571,3.74659 0.980359,1.45174 1.202325,2.37159 0.654396,2.71191 -0.456038,0.28326 -0.955516,1.38669 -1.10995,2.45209 -0.225186,1.55393 -0.500058,1.17077 -1.389277,-1.93709 z m 56.914465,2.2123 c -4.40299,-2.29653 -8.13576,-5.13741 -8.13576,-6.19184 0,-0.5813 0.35362,-1.05688 0.78581,-1.05688 0.6472,0 7.65695,5.278 10.41054,7.83866 1.16146,1.08007 -0.45681,0.76813 -3.06059,-0.58994 z m 67.797979,0.17676 c 0,-1.12496 9.83284,-6.37408 10.56627,-5.64065 0.45647,0.45648 -8.72275,6.73837 -9.84621,6.73837 -0.39604,0 -0.72006,-0.49398 -0.72006,-1.09772 z m 46.5284,-0.19371 c 0.0462,-1.71703 6.08799,-13.53572 6.07339,-11.88077 -0.0194,2.18537 -4.1728,12.67423 -5.1432,12.98806 -0.54396,0.17603 -0.95174,-0.30945 -0.93019,-1.10729 z M 61.95756,183.19227 c -6.997599,-4.00051 -9.65833,-6.59076 -6.770064,-6.59076 1.22879,0 11.135625,7.00975 11.22444,7.94205 0.09225,0.96859 -0.949051,0.6527 -4.454376,-1.35129 z m 124.88797,0.76699 c -0.51149,-1.33288 0.0482,-2.64378 4.241,-9.934 1.42768,-2.4823 2.77682,-4.33224 2.99813,-4.11096 0.49006,0.49006 -5.17255,14.33107 -6.09678,14.90229 -0.36161,0.22349 -0.87564,-0.16223 -1.14235,-0.85733 z m -69.5179,-1.69609 c -1.19474,-1.19472 -0.20944,-2.40377 3.95914,-4.85782 2.45041,-1.44257 5.58849,-3.28806 6.97351,-4.10107 3.99717,-2.34635 2.92439,-0.14335 -1.69447,3.47958 -5.30982,4.16493 -8.60068,6.11683 -9.23818,5.47931 z M 18.233868,181.5757 c -0.319619,-0.32092 -0.581125,-3.86073 -0.581125,-7.86623 0,-4.00549 -0.337416,-7.91317 -0.749798,-8.68369 -1.053483,-1.96847 -1.34424,-7.35925 -0.412454,-7.64718 0.426159,-0.13172 1.066608,1.43737 1.423225,3.48676 0.356594,2.04941 1.016728,4.41159 1.466931,5.24933 1.324046,2.4638 0.255574,16.86908 -1.146779,15.46101 z m 82.132382,-1.70575 c -4.518739,-1.32041 -6.779799,-2.35801 -6.779799,-3.11125 0,-1.60865 5.39033,-0.64192 10.412419,1.86743 7.76199,3.87838 6.66674,4.2534 -3.63262,1.24382 z m 94.3806,1.4526 c -0.55384,-0.89612 5.78951,-10.33561 7.25252,-10.79247 0.75004,-0.23415 0.53531,0.56807 -0.67694,2.52957 -0.97644,1.57991 -2.4377,4.24352 -3.24728,5.91912 -1.45015,3.00144 -2.47557,3.72354 -3.3283,2.34378 z m -65.42357,-1.54698 c -0.5873,-0.37199 -0.81532,-1.08489 -0.5067,-1.58425 0.39432,-0.638 1.86348,-0.73253 4.94199,-0.31792 2.40947,0.32449 5.3397,0.53379 6.51163,0.46507 2.31354,-0.1356 2.88072,0.90878 0.90518,1.66686 -1.85256,0.71091 -10.63581,0.54064 -11.8521,-0.22979 z m 27.03001,-1.43071 c 0.002,-0.74578 1.83343,-2.85553 4.06788,-4.68835 4.97133,-4.07773 9.09917,-6.73086 9.09861,-5.84801 -4.4e-4,0.7003 -11.97913,11.89232 -12.7282,11.89232 -0.24395,0 -0.4412,-0.61018 -0.43829,-1.35596 z M 46.183222,175.80493 c -4.690506,-2.42167 -5.872491,-3.57537 -4.781186,-4.66668 0.53311,-0.53311 8.822261,4.45864 10.969471,6.60585 1.146198,1.1462 -2.310022,0.0632 -6.188285,-1.93917 z m 89.244268,0.89142 c 0,-1.0521 1.4734,-2.04381 7.59107,-5.10949 8.32874,-4.17367 9.2322,-3.02292 1.35163,1.72158 -6.49851,3.91243 -8.9427,4.83838 -8.9427,3.38791 z m 21.69535,-6.13629 c 0,-1.26758 2.01709,-3.46165 7.939,-8.63551 3.96665,-3.46559 3.01004,-1.02549 -1.76977,4.51431 -4.9007,5.67992 -6.16923,6.52732 -6.16923,4.1212 z m -106.539674,-1.8675 c -2.593636,-1.48679 -9.685402,-8.55683 -9.685402,-9.65576 0,-1.57701 2.099559,-1.22695 3.350189,0.55858 0.612482,0.87442 2.926597,3.48949 5.142501,5.81125 3.950467,4.13922 4.283961,5.05798 1.192712,3.28593 z m 41.066205,-2.93132 c -3.35547,-1.85984 -5.51227,-3.57068 -5.65573,-4.48634 -0.19904,-1.27072 0.53437,-1.60659 5.18569,-2.37474 2.97965,-0.49209 5.98117,-0.89469 6.66999,-0.89469 2.296339,0 0.45701,1.34785 -3.04144,2.22876 -1.89967,0.47834 -3.65615,1.1969 -3.9033,1.59679 -0.24712,0.39988 1.10908,1.79928 3.01382,3.10977 3.43469,2.36315 4.98736,3.95187 3.78167,3.86954 -0.34478,-0.0242 -3.06759,-1.39562 -6.0507,-3.04909 z m -31.232786,-1.70509 c -0.933724,-1.51076 -1.697662,-2.97469 -1.697662,-3.25312 0,-0.27848 -0.912294,-1.88488 -2.027329,-3.56983 -1.18966,-1.79769 -1.826187,-3.58775 -1.540515,-4.33224 0.801929,-2.08975 2.43833,-0.0492 5.113227,6.37625 2.689061,6.45946 2.770516,9.01534 0.152303,4.77894 z m 10.118556,-3.48586 c -3.256868,-1.92597 -4.228461,-3.33966 -2.29523,-3.33966 1.21705,0 6.51805,4.34004 5.97569,4.8924 -0.21308,0.21696 -1.86928,-0.4817 -3.68046,-1.55274 z m 50.549859,-2.5779 c -0.84271,-1.36354 0.43163,-2.31142 3.1074,-2.31142 1.44126,0 2.81475,-0.31437 3.05219,-0.69857 0.79888,-1.29259 9.05817,-6.43281 9.54845,-5.94254 0.26688,0.26691 -0.82082,1.56183 -2.4171,2.87762 -1.5963,1.31578 -2.78102,2.51368 -2.63274,2.66196 0.14819,0.14819 2.17111,-0.23632 4.49516,-0.85491 6.93379,-1.84524 8.35251,-1.1106 2.28847,1.18502 -1.49156,0.56463 -3.23493,1.44569 -3.87417,1.95788 -1.50294,1.20421 -12.93295,2.15196 -13.56766,1.12496 z m 33.32593,0.0121 c -0.26338,-0.42616 -0.27599,-1.1031 -0.0281,-1.50432 0.76093,-1.23123 9.67956,-6.38446 10.54832,-6.09487 0.74113,0.24703 -8.58058,8.37402 -9.60503,8.37402 -0.23996,0 -0.65186,-0.34867 -0.91525,-0.77483 z m -64.017689,-1.60768 c -1.95921,-1.21088 0.41265,-2.2639 4.98233,-2.21203 5.177149,0.0588 8.809669,1.00081 6.734059,1.74635 -1.93624,0.69551 -10.776029,1.04685 -11.716389,0.46568 z m 90.772079,-1.61984 c 0.0288,-2.30012 4.13253,-12.49101 5.16918,-12.83656 0.42938,-0.1431 -0.14238,2.95306 -1.27041,6.88043 -1.96123,6.82784 -3.94759,9.86238 -3.89877,5.95613 z m 8.20825,-0.28984 c -0.77958,-2.03154 8.7218,-12.33032 10.10214,-10.94998 0.22543,0.22543 -1.15194,2.82463 -3.06105,5.77581 -3.36402,5.20027 -6.22446,7.30225 -7.04109,5.17417 z M 84.013191,151.93067 c -2.48599,-2.74698 -6.69825,-9.03594 -6.69825,-10.00056 0,-2.64396 2.52223,-0.35558 5.41251,4.91068 3.2381,5.89997 3.71019,7.76889 1.28574,5.08988 z m 59.552119,0.6542 c -0.56946,-0.92137 1.34688,-1.70865 8.26089,-3.39377 6.02375,-1.46816 6.64573,-1.52281 5.61651,-0.49362 -0.72365,0.72367 -11.54154,4.65893 -12.80719,4.65893 -0.32635,0 -0.80796,-0.34719 -1.07021,-0.77154 z m 78.64359,-2.1728 c 0,-0.76709 0.35013,-1.74483 0.77803,-2.17273 0.4279,-0.4279 2.02215,-3.02554 3.54274,-5.77252 2.64794,-4.78351 2.74792,-4.87089 2.3668,-2.06897 -0.42325,3.11185 -4.76462,11.40892 -5.96959,11.40892 -0.3949,0 -0.71798,-0.62761 -0.71798,-1.3947 z m -18.83684,-1.42892 c -0.29369,-0.29371 -0.53401,-0.76546 -0.53401,-1.04835 0,-0.69805 6.98419,-5.67365 7.39182,-5.26601 0.17822,0.17821 -1.17171,1.79202 -2.99986,3.5862 -1.82815,1.7942 -3.56424,3.02188 -3.85795,2.72816 z M 34.699092,139.79687 c 0,-6.43752 0.225428,-8.13576 1.079344,-8.13576 1.677225,0 1.923283,1.59599 1.203995,7.8095 -0.366109,3.16256 -0.680958,6.36028 -0.699651,7.10606 -0.01937,0.74577 -0.382695,1.35595 -0.808854,1.35595 -0.46737,0 -0.774834,-3.22849 -0.774834,-8.13575 z m 80.582718,6.46882 c -1.49156,-0.41379 -4.01946,-1.09315 -5.61755,-1.50967 -2.71497,-0.70761 -4.18076,-3.00451 -1.93709,-3.03541 1.57868,-0.0218 12.20364,4.19335 12.20364,4.84138 0,0.74224 -1.17547,0.66733 -4.649,-0.2963 z m 39.51653,0.25233 c 0,-1.05092 3.18435,-3.55445 8.32947,-6.54868 3.41256,-1.98595 4.84271,-2.49005 4.84271,-1.70693 0,0.61122 -0.95886,1.72611 -2.13079,2.47753 -1.17194,0.75142 -3.63937,2.50286 -5.48319,3.89204 -3.22909,2.4329 -5.5582,3.22323 -5.5582,1.88604 z M 45.712656,138.27347 c 0.146008,-5.54733 0.529768,-8.5256 1.124308,-8.72277 0.496524,-0.16465 1.096802,0.32996 1.33395,1.0992 0.490663,1.59161 -1.315208,14.68238 -2.139099,15.50625 -0.297367,0.29737 -0.440978,-3.24983 -0.319159,-7.88268 z m -26.322251,5.33723 c -3.127279,-7.99784 -4.221127,-15.57305 -2.132997,-14.77178 1.239008,0.47546 1.571194,-0.47725 2.223192,-6.37594 0.418822,-3.78928 1.578071,-5.52706 2.843157,-4.26197 0.545919,0.54592 0.427515,2.36375 -0.375964,5.77251 -0.645049,2.73662 -1.177966,6.25415 -1.184261,7.81672 -0.0073,1.56257 -0.364172,2.95863 -0.795246,3.10232 -0.525023,0.17506 -0.509066,1.74737 0.04819,4.76239 0.966194,5.22664 0.650521,7.22083 -0.626187,3.95575 z M 3.8721248,136.89124 c -0.923893,-3.08965 -1.775145,-6.45081 -1.89166,-7.46923 -0.300273,-2.6247 1.558893,-2.94832 2.513513,-0.43752 0.837934,2.20392 2.018806,13.5243 1.410779,13.5243 -0.193951,0 -1.108739,-2.5279 -2.032632,-5.61755 z m 140.4834452,4.87097 c -0.62416,-1.0099 2.43426,-3.81976 7.79161,-7.15843 7.6256,-4.75225 7.10762,-3.17214 -1.18381,3.61134 -5.55851,4.54759 -5.8821,4.7213 -6.6078,3.54709 z m 24.05087,0.0501 c -0.71612,-1.15871 5.39016,-13.1067 6.25596,-12.2409 0.51558,0.51558 -4.44292,12.93728 -5.16429,12.93728 -0.36371,0 -0.85496,-0.31337 -1.09167,-0.69638 z m -85.504339,-5.87554 c -5.12071,-5.46367 -6.12717,-7.37502 -3.88347,-7.37502 0.46057,0 1.2245,0.4813 1.69766,1.06952 9.81811,12.20671 11.05165,15.76511 2.18581,6.3055 z m 48.048159,4.82862 c 0.39332,-1.26601 11.23381,-6.98382 12.45064,-6.56711 1.16341,0.39841 -9.69705,7.53565 -11.4667,7.53565 -0.70665,0 -1.14944,-0.43584 -0.98394,-0.96854 z m -72.403132,-3.68044 c -2.115418,-6.95835 -2.767562,-10.62765 -2.085102,-11.73189 1.164454,-1.88413 2.320361,0.4257 3.127399,6.2494 0.425118,3.06765 0.656018,6.51503 0.51311,7.66081 -0.214774,1.72207 -0.484441,1.34439 -1.555407,-2.17832 z m 9.137913,0.58112 c -0.1988,-0.95885 -0.579193,-3.74826 -0.845348,-6.19867 -0.406183,-3.73959 -0.288263,-4.45529 0.734078,-4.45529 1.00596,0 1.21799,1.07917 1.21799,6.19867 0,6.14923 -0.41182,7.80715 -1.10672,4.45529 z m -15.023504,-2.3245 c -1.495962,-6.02571 -1.956093,-12.72316 -0.918178,-13.3646 0.523449,-0.32352 1.221719,-0.14771 1.55485,0.39117 0.61483,0.99479 1.084259,16.26648 0.500034,16.26648 -0.175548,0 -0.68706,-1.48187 -1.136706,-3.29305 z m 123.057323,2.52635 c 0,-1.21022 4.02972,-10.95855 4.38367,-10.6046 0.27672,0.27671 -0.25697,3.31285 -1.6924,9.62792 -0.38371,1.68807 -2.69127,2.52552 -2.69127,0.97668 z M 31.285706,137.20367 c -0.512408,-0.8291 1.416396,-12.71513 2.293678,-14.1346 0.658536,-1.06554 2.669376,-0.84648 2.669376,0.29081 0,2.17711 -4.469098,14.64303 -4.963054,13.84379 z m 56.453005,-0.95261 c -1.47136,-2.38073 -4.69392,-23.94598 -3.89098,-26.03837 0.36239,-0.94438 0.6929,-1.00225 1.56948,-0.27473 0.86692,0.71946 1.01346,2.26787 0.66829,7.06077 -0.37422,5.19621 -0.25932,6.1392 0.74794,6.1392 0.93433,0 1.30859,1.42277 1.74158,6.6207 0.54253,6.51294 0.30688,8.34215 -0.83631,6.49243 z m 25.993429,-1.84169 c 0,-0.61923 1.22985,-1.7095 2.73301,-2.42278 2.92231,-1.38674 5.79016,-4.49094 5.79016,-6.26737 0,-0.59614 -1.22036,-1.80391 -2.71192,-2.68395 -2.99509,-1.76718 -3.50346,-2.99667 -1.239,-2.99667 1.78962,0 11.5194,7.16259 10.28756,7.5732 -0.48008,0.16005 -1.65679,-0.25811 -2.61492,-0.92919 -1.8658,-1.30688 -3.06209,-1.58359 -2.76264,-0.63905 0.49875,1.57323 -2.20714,5.72479 -4.88737,7.49848 -3.42314,2.26533 -4.59488,2.48649 -4.59488,0.86733 z m 73.93483,-1.77967 c 0.97978,-4.22979 3.85011,-11.29909 4.18265,-10.30144 0.29652,0.88958 -0.76263,7.05215 -1.90369,11.07627 -0.21138,0.74578 -0.92179,1.35596 -1.57851,1.35596 -0.90568,0 -1.07484,-0.51458 -0.70045,-2.13079 z M 27.595631,131.29788 c -0.652846,-1.43281 -0.625097,-3.71765 0.110656,-9.1043 l 0.982175,-7.1914 4.98734,-5.12187 c 2.743034,-2.81703 5.552655,-5.95511 6.243589,-6.97351 2.790759,-4.1134 8.947469,-10.76223 9.965649,-10.76223 2.025731,0 1.096947,1.67197 -3.708912,6.67677 -2.636979,2.74613 -4.847459,5.71174 -4.912158,6.59021 -0.06465,0.87849 -0.457007,1.82672 -0.871761,2.10718 -4.602296,3.11225 -8.057233,6.01773 -8.35213,7.02387 -1.694538,5.78126 -3.594794,15.45046 -3.319486,16.89071 0.443181,2.31828 -0.03317,2.26094 -1.124938,-0.13536 z m 134.176219,-1.83531 c 0,-0.96569 1.2538,-4.17856 2.78621,-7.13971 2.64574,-5.11258 4.1873,-7.14095 4.1873,-5.50963 0,1.48686 -4.62564,12.05724 -5.78257,13.21417 -1.07135,1.07137 -1.19094,1.01467 -1.19094,-0.56483 z m 55.81565,-1.48192 c 0.0286,-3.00747 1.85895,-11.63656 2.63238,-12.40999 0.58546,-0.58546 0.54783,6.16468 -0.0627,11.24774 -0.58887,4.90259 -2.61387,5.81852 -2.56964,1.16225 z M 0.18086378,119.7206 c -0.495652,-2.64201 0.09346,-10.31239 0.96677502,-12.58824 0.219617,-0.57244 0.924668,-1.04077 1.566666,-1.04077 0.898541,0 1.05714,0.57977 0.688828,2.51821 -0.263178,1.38501 -0.787571,4.89167 -1.165327,7.7926 -0.815198,6.25998 -1.34479702,7.11428 -2.05694202,3.3182 z M 172.35385,121.78522 c -0.27622,-0.44693 0.57459,-3.11369 1.89067,-5.9261 1.9607,-4.18989 2.34494,-5.88392 2.12733,-9.37879 -0.28218,-4.53222 0.75322,-5.38037 1.83178,-1.50051 0.95,3.41726 -0.0784,10.09551 -1.79366,11.64781 -0.80627,0.72966 -1.46594,1.72897 -1.46594,2.2207 0,1.51672 -2.03903,3.82868 -2.59018,2.93689 z M 147.05,119.64973 c 0,-1.06874 9.56719,-11.23374 10.57307,-11.23374 2.27535,0 0.81675,2.43049 -4.0387,6.72977 -5.05589,4.47678 -6.53437,5.49585 -6.53437,4.50397 z m -85.003213,-3.09791 c -3.833007,-7.58725 -5.124704,-15.24057 -2.156435,-12.77713 0.634201,0.52633 1.153074,1.48685 1.153074,2.13452 0,0.64764 0.718876,3.59133 1.597465,6.54154 1.897617,6.37182 1.597999,8.44019 -0.594104,4.10107 z m 26.490144,0.16691 c -1.05963,-2.61328 2.96197,-12.95165 5.03814,-12.95165 1.30887,0 0.88539,2.25312 -0.86965,4.62695 -0.91075,1.23184 -2.09508,3.91996 -2.63185,5.97358 -0.73205,2.80064 -1.1161,3.38828 -1.53664,2.35112 z m -13.86948,-5.30353 c -0.24528,-1.86258 -0.53446,-5.82723 -0.6426,-8.81034 -0.15933,-4.39205 0.0245,-5.42384 0.96559,-5.42384 0.94447,0 1.2039,1.5118 1.38448,8.06849 0.22954,8.33973 -0.88912,12.37974 -1.70747,6.16569 z m 43.339009,2.44536 c -0.52488,-0.84932 4.81271,-12.88724 5.43725,-12.26267 0.58127,0.58127 -3.54556,13.01689 -4.31972,13.01689 -0.35826,0 -0.86113,-0.3394 -1.11753,-0.75422 z m 87.98541,-4.41135 c 0.0821,-5.64905 1.34216,-7.89597 1.55696,-2.77647 0.094,2.23733 0.20557,4.47466 0.24816,4.97184 0.0426,0.49718 -0.35836,1.04925 -0.89106,1.22683 -0.69035,0.23003 -0.9529,-0.75275 -0.91406,-3.4222 z m -195.295418,2.15818 c -0.02954,-1.83672 6.425796,-13.26412 7.492936,-13.26412 1.725458,0 1.127868,2.27922 -1.692335,6.45478 -4.034464,5.97329 -5.781061,8.02362 -5.800601,6.80934 z m 36.446015,-1.4479 c 0.139228,-1.75745 6.953458,-13.01743 8.005827,-13.22901 2.18496,-0.43926 1.368769,1.96069 -2.712403,7.97578 -3.488158,5.14102 -5.43781,7.07588 -5.293424,5.25323 z m 182.325853,-4.44048 c -0.86866,-2.26368 0.85087,-15.47098 1.92755,-14.80514 0.96234,0.59512 0.48979,15.43888 -0.50202,15.76947 -0.51469,0.17168 -1.15618,-0.26238 -1.42553,-0.96433 z M 26.950751,105.00842 c 0,-1.8189 8.507557,-13.63868 9.81676,-13.63868 2.051979,0 0.958131,2.89802 -2.427555,6.43153 -1.902145,1.9852 -4.034294,4.4883 -4.73811,5.56246 -1.094235,1.67004 -2.651095,2.63587 -2.651095,1.64469 z m 55.06477,-6.26047 c -2.33184,-5.9947 -2.71761,-9.709296 -0.89111,-8.58046 1.48345,0.91682 5.22255,15.14926 3.97996,15.14926 -0.29354,0 -1.68352,-2.95597 -3.08885,-6.5688 z m 33.266289,5.81721 c 0,-4.28207 1.97757,-14.74509 2.78688,-14.74509 1.62076,0 1.60732,1.51744 -0.0729,8.21106 -1.50437,5.99342 -2.71413,8.90582 -2.71413,6.53403 z m 86.78141,-9.86359 c 0,-10.280636 1.2247,-9.827576 1.98973,0.7361 0.48538,6.70248 0.40402,7.55463 -0.7213,7.55463 -1.09564,0 -1.26843,-1.12935 -1.26843,-8.29073 z m -37.2438,4.74153 c -0.7584,-0.91382 -2.11,-1.15966 -5.325,-0.96854 -4.87765,0.2899 -6.48764,-0.9337 -2.37158,-1.80241 3.50204,-0.73912 8.27104,0.52698 9.31211,2.47223 0.97469,1.82122 -0.17555,2.03389 -1.61553,0.29872 z m -36.36544,-2.01074 c 0,-1.03838 9.09106,-9.936788 10.1519,-9.936788 1.73728,0 0.41757,2.894228 -2.10236,4.610618 -1.53313,1.04429 -3.70884,2.87483 -4.83489,4.06788 -2.19186,2.32225 -3.21465,2.72262 -3.21465,1.25829 z m 20.14569,-3.21784 c 0,-1.27489 4.72927,-9.818284 5.435,-9.818284 1.48625,0 0.73227,2.529882 -1.6987,5.699754 -3.289,4.28872 -3.7363,4.78179 -3.7363,4.11853 z m -44.16554,-0.83326 c 0,-0.49653 5.46844,-10.040057 6.38957,-11.151097 0.45773,-0.552093 1.26821,-0.836506 1.80105,-0.632022 0.53287,0.204604 1.87665,-1.00002 2.98619,-2.676665 1.10956,-1.676619 2.34051,-3.048415 2.73548,-3.048415 1.57931,0 1.50228,1.532767 -0.1816,3.614843 -0.97704,1.208015 -3.12939,4.201296 -4.78298,6.651709 -2.8419,4.211267 -5.31313,6.248957 -3.52382,2.905627 1.40857,-2.631941 0.31351,-1.712213 -1.8451,1.54967 -1.70812,2.58111 -3.57874,4.03756 -3.57874,2.78635 z m -37.966866,-1.9499 c 0,-1.16685 11.119137,-10.103394 12.591057,-10.119569 3.04427,-0.03341 0.98328,2.540899 -5.25711,6.566622 -6.996313,4.513377 -7.333947,4.676947 -7.333947,3.552947 z M 209.3915,91.31683 c -0.28993,-0.46914 -0.2594,-3.874407 0.0678,-7.56729 0.68009,-7.674901 1.69483,-6.371218 1.82466,2.344261 0.0731,4.905759 -0.72585,7.110699 -1.89248,5.223029 z M 40.901614,89.86489 c -0.0048,-1.173143 7.538603,-13.191861 8.89512,-14.173745 3.271373,-2.367966 2.375689,1.308259 -1.521702,6.245647 -6.085886,7.709868 -7.369422,9.089958 -7.373418,7.928098 z M 11.496468,88.60666 c 0.553837,-0.66735 1.932775,-1.692092 3.064323,-2.277237 1.131525,-0.585145 3.563487,-2.322251 5.404347,-3.860248 2.28438,-1.908537 3.599032,-2.544361 4.140713,-2.002679 1.166029,1.166028 -1.322545,3.584503 -6.894958,6.700765 -5.237854,2.929189 -7.4035872,3.474689 -5.714425,1.439399 z m 80.241983,-2.079703 c 2.0288,-3.957029 5.72304,-9.1043 6.53425,-9.1043 1.5924,0 0.57981,2.514675 -2.80459,6.964838 -3.84204,5.051945 -5.79827,6.174125 -3.72966,2.139462 z m -32.244693,1.254771 c 0,-0.268722 1.203728,-2.164063 2.674945,-4.211877 2.138832,-2.977106 2.428136,-3.772086 1.443515,-3.966714 -1.414798,-0.279667 10.770093,-9.153987 12.568873,-9.153987 2.47993,0 0.91765,2.407942 -2.77698,4.280159 -2.15096,1.089974 -4.15585,2.607898 -4.4553,3.373168 -0.6772,1.730592 -8.018826,10.167857 -8.847535,10.167857 -0.334123,0 -0.607518,-0.219859 -0.607518,-0.488606 z m 46.794692,-5.128869 c 1.22049,-9.844702 1.41802,-10.653968 2.60056,-10.653968 0.94264,0 1.08814,0.661539 0.72428,3.293045 -0.88091,6.371194 -2.21678,11.428802 -3.01868,11.428802 -0.52517,0 -0.63294,-1.431917 -0.30616,-4.067879 z m 79.4756,-1.706572 c -0.62403,-0.618898 -3.22665,-2.21525 -5.7836,-3.547432 l -4.649,-2.422107 3.20217,0.362235 c 3.70349,0.418967 10.35742,4.044924 10.35742,5.644133 0,1.414823 -1.68352,1.395041 -3.12699,-0.0368 z m -47.68699,-4.653701 2.26215,-1.84936 -5.53996,-0.545895 c -3.04699,-0.300248 -5.35193,-0.850186 -5.12204,-1.222107 0.22978,-0.37192 3.49273,-0.676212 7.25082,-0.676212 5.12843,0 7.07351,-0.289933 7.79747,-1.162251 1.20734,-1.454751 3.87417,-1.523735 3.87417,-0.100244 0,1.065469 -10.29415,7.485526 -11.91876,7.433249 -0.47631,-0.01453 0.15206,-0.860065 1.39615,-1.877229 z M 59.756402,71.64484 c 2.702888,-2.048152 11.263669,-5.272406 12.618459,-4.752517 2.18869,0.839896 -0.12494,2.367312 -6.415283,4.235195 -6.501172,1.930523 -8.26191,2.077354 -6.203176,0.517322 z M 48.258664,67.627326 c 5.083081,-4.522174 9.678549,-7.419448 10.977582,-6.920963 1.85011,0.709966 0.107024,2.36598 -6.660037,6.327246 -7.024307,4.111875 -8.500196,4.314833 -4.317545,0.593717 z m 65.860886,-0.224944 c 2.56718,-3.020933 10.46198,-9.350673 11.66276,-9.350673 2.51027,0 0.84203,2.327117 -3.72071,5.190129 -2.66349,1.671268 -5.88874,3.70143 -7.16721,4.511423 l -2.3245,1.472717 z M 229.612,68.192809 c -0.64439,-1.04266 2.40172,-9.884001 3.67688,-10.67208 0.48209,-0.297948 0.62236,-0.01937 0.34914,0.692242 -0.25122,0.654662 -0.69638,2.788192 -0.98925,4.741161 -0.61614,4.108582 -2.12573,6.712775 -3.03677,5.238677 z m -73.19169,-4.675833 c -5.34132,-1.720494 -3.87715,-2.768627 2.05046,-1.467802 2.45484,0.538704 7.3399,0.891859 10.85571,0.784786 5.32321,-0.162231 6.39238,0.0048 6.39238,0.998374 0,1.744611 -13.59284,1.522525 -19.29855,-0.315358 z m 66.32175,0.152546 c -0.94799,-1.653617 -4.42793,-13.60352 -4.06672,-13.964762 0.43669,-0.436667 6.6329,12.440905 6.6329,13.785121 0,0.888154 -2.07665,1.033532 -2.56618,0.179665 z M 30.824922,63.09428 c 0,-0.800403 7.285595,-10.466119 7.888924,-10.466119 1.58163,0 0.335939,2.813931 -2.946621,6.656212 -3.13447,3.668936 -4.942303,5.062547 -4.942303,3.809907 z m 63.536369,-1.677516 c 0,-1.242543 7.597969,-12.662774 8.424649,-12.662774 2.00345,0 1.0952,2.545863 -2.37264,6.650643 -5.201799,6.157219 -6.052009,7.001812 -6.052009,6.012131 z m -23.13652,-2.947493 c 0.3548,-1.868294 8.97267,-8.940568 10.89446,-8.940568 2.81446,0 1.26898,2.287165 -3.44833,5.103179 -2.66349,1.589983 -5.4934,3.445759 -6.28872,4.123981 -1.34233,1.144672 -1.42531,1.124139 -1.15741,-0.286592 z M 205.88603,55.533667 c -1.28358,-4.771258 -2.89066,-7.538554 -4.83191,-8.320313 l -1.70282,-0.685752 1.67771,-0.04915 c 3.02624,-0.08862 7.7511,6.445385 7.94878,10.99228 0.12083,2.779669 -2.21682,1.315039 -3.09176,-1.937085 z m 7.7765,0.912513 c -0.54233,-1.3093 -2.52927,-3.92376 -4.41539,-5.8099 -3.51339,-3.513364 -2.52005,-3.847995 1.84694,-0.622143 2.85485,2.108832 6.01653,6.884183 5.31231,8.023625 -0.84854,1.372981 -1.72693,0.863479 -2.74386,-1.591582 z M 105.74629,53.352243 c 0.76987,-1.306346 3.54612,-4.70593 6.16944,-7.554632 3.88042,-4.213838 4.95865,-4.996881 5.78336,-4.200109 0.82753,0.799556 -0.18741,2.186872 -5.5274,7.554632 -6.88607,6.922029 -8.74606,8.13784 -6.4254,4.200109 z m 75.26253,0.170706 c -8.40019,-3.342247 -8.10161,-4.116694 0.74949,-1.944035 5.22441,1.282448 7.13273,2.210408 7.13273,3.468521 0,1.118182 -2.41336,0.651417 -7.88222,-1.524486 z m -85.872699,-0.4041 c 0,-0.463908 3.80615,-6.052714 6.138789,-9.013984 1.2061,-1.531121 1.72575,-1.73788 2.47957,-0.986509 0.75442,0.751976 0.14673,1.874832 -2.90887,5.374297 -3.460439,3.96318 -5.709489,5.785517 -5.709489,4.626196 z m 26.414699,-2.578842 c 0.61112,-1.717662 10.26769,-11.85898 11.29212,-11.85898 2.46353,0 0.72965,3.094445 -3.72921,6.655461 -6.88004,5.494663 -7.92144,6.211191 -7.56291,5.203519 z m 13.10184,-4.037031 c 0,-0.385649 1.65621,-1.661583 3.68046,-2.835408 2.02425,-1.173801 4.51428,-2.777756 5.53338,-3.564334 1.40175,-1.08191 2.10716,-1.219152 2.8971,-0.563546 1.58367,1.314312 0.60776,2.182393 -5.66936,5.042959 -6.35117,2.89432 -6.44158,2.92127 -6.44158,1.920329 z M 62.266332,45.55642 c 0.699094,-1.131185 6.085209,-5.995448 9.116499,-8.233242 1.43023,-1.055832 2.64427,-1.465114 3.07331,-1.03605 1.09375,1.093727 0.1138,2.107476 -6.07019,6.28049 -5.82678,3.931847 -7.081067,4.544451 -6.119619,2.988802 z m 92.532008,-0.856482 c 1.0654,-0.467322 4.10028,-2.2176 6.74413,-3.889498 4.51368,-2.854271 7.02443,-3.251494 6.1501,-0.972998 -0.2769,0.721613 0.98816,1.146585 4.54823,1.527828 2.7125,0.29049 5.31902,0.994693 5.79225,1.564898 1.53594,1.850691 -0.51667,2.089728 -7.19642,0.83808 -6.17654,-1.157384 -6.54805,-1.144018 -9.46038,0.340782 -1.66728,0.850017 -4.2652,1.521895 -5.77319,1.493057 -2.66144,-0.05085 -2.68502,-0.07724 -0.80472,-0.902149 z m 63.32099,-3.500701 c -3.88879,-5.356718 -5.49732,-8.69095 -3.63857,-7.542162 1.29682,0.801493 8.50298,9.68993 8.50298,10.488009 0,1.870328 -2.44134,0.391872 -4.86441,-2.945847 z m -32.71034,-6.032373 c -2.41034,-3.259292 -4.14791,-6.1555 -3.86122,-6.436039 0.64582,-0.631998 10.48208,10.060276 10.17824,11.064026 -0.61132,2.019459 -2.33476,0.756819 -6.31702,-4.627987 z m -59.27951,0.509695 c 0,-0.959559 1.33933,-1.928877 6.01155,-4.35079 2.24097,-1.161646 4.26643,-2.42264 4.50104,-2.802236 0.72735,-1.1769 3.43443,-0.766504 3.43443,0.52064 0,0.751492 -1.98418,2.082173 -5.23013,3.507553 -2.87658,1.263173 -5.83557,2.63601 -6.57556,3.05074 -1.66248,0.931713 -2.14133,0.9483 -2.14133,0.07409 z M 105.9838,32.654997 c 0,-1.031813 9.74586,-11.02032 10.75261,-11.02032 2.20615,0 0.46602,3.050595 -3.54164,6.208867 -6.36694,5.017486 -7.21097,5.580669 -7.21097,4.811453 z m 89.49333,-2.244041 c -1.27848,-1.112322 -3.49431,-3.040497 -4.92407,-4.284856 -3.3452,-2.911391 -2.67056,-3.594455 1.17041,-1.185012 2.18721,1.372037 3.73632,1.777905 5.82922,1.52727 3.49557,-0.418604 8.3847,1.090071 8.3847,2.587317 0,1.393829 -0.68619,1.383878 -4.14207,-0.06005 -1.52991,-0.639238 -3.40305,-1.150653 -4.1625,-1.136464 -1.20097,0.02179 -1.15376,0.215259 0.36252,1.480151 0.95886,0.79992 1.74338,1.834347 1.74338,2.298739 0,1.42216 -1.81844,0.89859 -4.26159,-1.227046 z m -29.24998,-0.828273 c -5.72806,-1.303683 -6.89627,-2.549785 -2.32451,-2.479518 5.03567,0.07748 9.1043,1.073243 9.1043,2.228423 0,1.553494 -0.90936,1.587175 -6.77979,0.251095 z m -17.62748,-1.239517 c 0,-0.255864 2.46819,-1.214915 5.48483,-2.131181 4.05212,-1.230799 5.71176,-1.439012 6.35364,-0.797135 0.54757,0.547566 0.59665,1.134309 0.13269,1.586788 -0.83239,0.811929 -11.97118,2.060163 -11.97118,1.341528 z m 3.70618,-6.878177 c 1.62148,-1.978709 5.11356,-3.039795 9.15902,-2.783035 2.6577,0.168769 3.79373,0.572021 3.79373,1.346952 0,0.833843 -1.23988,1.132638 -5.03642,1.213705 -2.77003,0.05908 -5.90811,0.406376 -6.97351,0.77159 -1.69933,0.58253 -1.81504,0.515119 -0.94282,-0.549212 z M 90.889421,20.883911 c -0.54228,-0.877451 11.962429,-5.626239 13.381409,-5.081724 1.05022,0.40301 1.06462,0.610714 0.10727,1.545503 -1.34979,1.317823 -12.975879,4.365778 -13.488579,3.536221 z M 140.85133,17.70777 c -1.0654,-0.31221 -3.68046,-0.613475 -5.81126,-0.669505 -3.58159,-0.09419 -3.76058,-0.187897 -2.37009,-1.239493 2.36576,-1.789382 11.16197,-1.106414 11.83714,0.919099 0.39652,1.189564 -1.35548,1.66398 -3.65579,0.989899 z m 33.49131,-2.051543 c -6.43021,-0.47599 -3.92732,-1.76989 3.42362,-1.76989 4.93708,0 6.52459,0.244557 6.28674,0.968542 -0.34262,1.043 -3.22847,1.281164 -9.71036,0.801348 z m -63.3969,-1.649379 c 0.60742,-0.982829 10.14977,-5.5443495 11.59837,-5.5443495 2.81708,0 0.92861,1.509135 -4.74409,3.7912385 -6.26974,2.522279 -7.52865,2.844271 -6.85428,1.753111 z m 19.90086,-0.934983 c 1.52899,-0.362332 4.56588,-1.362715 6.74863,-2.223072 2.64325,-1.0418845 4.13764,-1.2908485 4.47467,-0.745535 1.18794,1.922145 -4.15456,3.79504 -10.51658,3.686757 l -3.48675,-0.05932 z m 25.25511,-3.8200765 c 0.92992,-0.385262 3.85231,-0.945031 6.49415,-1.243924 3.92902,-0.444512 4.73828,-0.346811 4.44571,0.536718 -0.25928,0.782994 -2.04573,1.12518 -6.49415,1.243899 -4.25479,0.113562 -5.61801,-0.05109 -4.44571,-0.536693 z m -21.65589,-6.769411 c -3.99712,-0.604176 -1.28038,-1.76826703 4.12675,-1.76826703 4.26398,0 5.3781,0.240683 5.3781,1.16225003 0,1.168111 -4.06946,1.427584 -9.50485,0.606017 z m 47.61474,-0.219374 c -4.23655,-0.634929 -5.42633,-1.172977 -4.54428,-2.05502903 0.77026,-0.770258 13.7251,0.782582 13.91796,1.66828903 0.21695,0.995735 -4.11703,1.174552 -9.37368,0.38674 z"
     id="path4505"
     inkscape:connector-curvature="0"
     sodipodi:nodetypes="cscccsscscccccsccssscscscssccccsccssccccccssccsscccsccssscccscsccscscccssscscscccsccsscsccccccsccccsccsccccsccscccsccccccccccscccccccccssccssssccccsscscccccccccccsccccccssccccccccccccccccsccsscscssscsscsccccccsscccccsccccccsccsscccscccscccsccccccccccsscscscccccscssccsscssccssccsscscscscsscsccccccccsscccccsccssscsscssccsccscssccccccssscsccsssscsscssccccsscscscsccccscccsccccscssccccccscscscscccccsccccccccscssssccscccscccccsccccscccccccsccccccccccssscsscsscscccscssccsccssccssscsccccsccccccscsscccccccsccccscccsccsccsccsscscscccccsccccccsssccccccccccccsccccscccscccscccsccsssssssscsccccccccccccccccccccccscscccscsscsccccscsccccccccccccccscccccsccsscssscsccscscccsccccscccscccccscccccccccccscsscscsccccccccccccccsscsscs" />
</svg>
